<?xml version="1.0" encoding="UTF-8" standalone="no"?>
<!-- Created with Inkscape (http://www.inkscape.org/) -->

<svg
   xmlns:dc="http://purl.org/dc/elements/1.1/"
   xmlns:cc="http://creativecommons.org/ns#"
   xmlns:rdf="http://www.w3.org/1999/02/22-rdf-syntax-ns#"
   xmlns:svg="http://www.w3.org/2000/svg"
   xmlns="http://www.w3.org/2000/svg"
   xmlns:sodipodi="http://sodipodi.sourceforge.net/DTD/sodipodi-0.dtd"
   xmlns:inkscape="http://www.inkscape.org/namespaces/inkscape"
   width="480"
   height="800"
   viewBox="0 0 480.00001 799.99999"
   id="svg4243"
   version="1.1"
   inkscape:version="0.91 r13725"
   sodipodi:docname="MessageUI.svg">
  <defs
     id="defs4245">
    <filter
       inkscape:collect="always"
       style="color-interpolation-filters:sRGB"
       id="filter5124"
       x="-0.040237903"
       width="1.0804758"
       y="-0.11790862"
       height="1.2358172">
      <feGaussianBlur
         inkscape:collect="always"
         stdDeviation="5.388795"
         id="feGaussianBlur5126" />
    </filter>
    <filter
       inkscape:collect="always"
       style="color-interpolation-filters:sRGB"
       id="filter5197"
       x="-0.035330284"
       width="1.0706606"
       y="-0.19884655"
       height="1.3976931">
      <feGaussianBlur
         inkscape:collect="always"
         stdDeviation="5.4995117"
         id="feGaussianBlur5199" />
    </filter>
    <filter
       inkscape:collect="always"
       style="color-interpolation-filters:sRGB"
       id="filter5283"
       x="-0.035196382"
       width="1.0703928"
       y="-0.20319742"
       height="1.4063948">
      <feGaussianBlur
         inkscape:collect="always"
         stdDeviation="6.0959226"
         id="feGaussianBlur5285" />
    </filter>
    <filter
       inkscape:collect="always"
       style="color-interpolation-filters:sRGB"
       id="filter5332"
       x="-0.040096602"
       width="1.0801932"
       y="-0.1191389"
       height="1.2382778">
      <feGaussianBlur
         inkscape:collect="always"
         stdDeviation="4.2561035"
         id="feGaussianBlur5334" />
    </filter>
  </defs>
  <sodipodi:namedview
     id="base"
     pagecolor="#ffffff"
     bordercolor="#666666"
     borderopacity="1.0"
     inkscape:pageopacity="0.0"
     inkscape:pageshadow="2"
     inkscape:zoom="2.8"
     inkscape:cx="-219.57692"
     inkscape:cy="432.3926"
     inkscape:document-units="px"
     inkscape:current-layer="layer1"
     showgrid="false"
     units="px"
     inkscape:window-width="1296"
     inkscape:window-height="746"
     inkscape:window-x="62"
     inkscape:window-y="-8"
     inkscape:window-maximized="1" />
  <metadata
     id="metadata4248">
    <rdf:RDF>
      <cc:Work
         rdf:about="">
        <dc:format>image/svg+xml</dc:format>
        <dc:type
           rdf:resource="http://purl.org/dc/dcmitype/StillImage" />
        <dc:title />
      </cc:Work>
    </rdf:RDF>
  </metadata>
  <g
     inkscape:groupmode="layer"
     id="layer2"
     inkscape:label="shadow"
     style="display:inline" />
  <g
     inkscape:label="レイヤー 1"
     inkscape:groupmode="layer"
     id="layer1"
     transform="translate(0,-252.36235)"
     style="display:inline">
    <g
       id="g5378"
       inkscape:export-xdpi="90.019241"
       inkscape:export-ydpi="90.019241">
      <g
         style="font-style:normal;font-weight:normal;font-size:90px;line-height:125%;font-family:sans-serif;letter-spacing:0px;word-spacing:0px;display:inline;fill:#000000;fill-opacity:1;stroke:#000000;stroke-width:5.29506877;stroke-linecap:butt;stroke-linejoin:miter;stroke-miterlimit:4;stroke-dasharray:none;stroke-opacity:1;filter:url(#filter5124)"
         id="g4268"
         transform="matrix(0.9442748,0,0,0.9442748,-11.50008,-101.3255)">
        <path
           d="m 170.09417,478.60602 q -1.93359,4.1748 -4.57031,6.24023 -2.63672,2.02149 -5.93262,2.02149 -3.64746,0 -7.38281,-2.46094 -3.69141,-2.46094 -7.47071,-7.38281 l -14.80957,-19.37989 -5.36132,1.49414 -1.49414,27.7295 -8.17383,1.3623 -2.98828,-78.09082 4.48242,-0.0879 0.21972,5.625 8.26172,0.65918 0.83496,-5.36133 4.43848,0.30762 -0.57129,5.80078 6.1084,1.49414 2.68066,-5.625 3.82325,1.80176 -2.63672,5.27344 q 2.15332,0.83496 3.73535,2.15332 1.62598,1.27441 2.76855,2.90039 l 4.30664,-3.03223 2.90039,3.25195 -5.58105,3.69141 q 0.70313,1.62598 0.92285,3.69141 0.21973,2.06543 -0.0879,4.52636 l 6.32813,2.24121 -1.80176,3.86719 -5.36133,-1.97754 q -0.43945,1.71387 -1.3623,3.47168 -0.92286,1.71387 -2.28516,3.38379 l 4.26269,3.7793 -2.68066,3.51562 -4.79004,-3.60351 -2.24121,1.23047 14.01856,22.32422 q 0.74707,1.14257 1.71386,2.19726 1.01074,1.05469 2.28516,1.97754 1.45019,1.05469 2.76855,1.58203 1.36231,0.52735 2.59278,0.52735 1.75781,0 3.38379,-0.9668 1.62597,-0.9668 3.16406,-2.85645 l 1.58203,0.70313 z M 138.893,446.61383 133.66351,423.19098 q -1.31836,-0.57129 -2.98829,-1.01074 -1.62597,-0.4834 -3.64746,-0.79102 l -2.15332,32.73926 q 4.43848,-1.14258 7.9541,-3.03223 3.51563,-1.88965 6.06446,-4.48242 z"
           style="font-style:normal;font-variant:normal;font-weight:normal;font-stretch:normal;font-size:90px;font-family:Jokerman;-inkscape-font-specification:Jokerman;fill:#000000;fill-opacity:1;stroke:#000000;stroke-width:5.29506877;stroke-linecap:butt;stroke-linejoin:miter;stroke-miterlimit:4;stroke-dasharray:none;stroke-opacity:1"
           id="path4270"
           inkscape:connector-curvature="0" />
        <path
           d="m 216.58831,483.30817 q -1.09863,1.09863 -1.97754,1.97754 -0.87891,0.83496 -1.53808,1.3623 l 3.29589,4.92188 -3.07617,1.80175 -3.33984,-4.13086 q -1.75781,1.05469 -3.73535,1.75782 -1.97754,0.74707 -4.21875,1.01074 l -0.0879,5.18555 -3.95508,-0.26368 0.35156,-4.79004 q -2.02148,0 -4.30664,-0.43945 -2.28516,-0.39551 -4.79004,-1.23047 l -2.46094,5.27344 -3.95508,-2.15332 2.68067,-4.92188 q -2.15332,-1.18652 -3.95508,-2.7246 -1.75781,-1.58204 -3.12012,-3.55958 l -4.70214,2.98829 -1.97754,-3.12012 5.1416,-2.68067 q -1.01074,-2.10937 -1.58203,-4.30664 -0.57129,-2.24121 -0.74707,-4.57031 l -4.70215,1.18653 -1.36231,-3.86719 6.06446,-1.36231 q 0.21972,-2.46093 0.74707,-4.43847 0.52734,-1.97754 1.3623,-3.51563 l -4.26269,-2.54883 2.02148,-3.33984 4.1748,2.90039 q 1.09864,-1.3623 2.37305,-2.46094 1.31836,-1.09863 2.76856,-1.93359 l -3.60352,-5.22949 3.95508,-1.9336 2.90039,5.58106 q 1.40625,-0.43946 2.54883,-0.70313 1.14258,-0.26367 2.02148,-0.39551 l 1.18653,-5.75683 3.12011,0.9668 -0.79101,4.57031 q 1.75781,0 3.33984,0.43945 1.58203,0.43945 3.03223,1.31836 l 4.35058,-4.30664 2.46094,2.06543 -4.13086,4.48242 q 0.9668,0.92285 1.80176,2.24121 0.83496,1.27442 1.49414,2.85645 l 5.1416,-1.71387 0.87891,3.25195 -4.96582,1.71387 q 0.35156,0.9668 0.57129,2.10938 0.26367,1.14257 0.48339,2.46093 l -20.43457,3.55957 0,0.4834 q 0,3.20801 0.65918,6.06446 0.70313,2.8125 2.10938,5.36132 1.66992,3.03223 3.99902,4.57032 2.3291,1.49414 5.22949,1.49414 2.98829,0 6.28418,-1.58203 3.2959,-1.58204 6.98731,-4.83399 l 2.24121,2.85645 z m -17.97363,-21.57715 q -0.17578,-1.9336 -1.4502,-2.90039 -1.23047,-0.9668 -3.55957,-0.9668 -2.85644,0 -5.31738,1.71387 -2.46094,1.71386 -3.33984,4.39453 l 13.66699,-2.24121 z"
           style="font-style:normal;font-variant:normal;font-weight:normal;font-stretch:normal;font-size:90px;font-family:Jokerman;-inkscape-font-specification:Jokerman;fill:#000000;fill-opacity:1;stroke:#000000;stroke-width:5.29506877;stroke-linecap:butt;stroke-linejoin:miter;stroke-miterlimit:4;stroke-dasharray:none;stroke-opacity:1"
           id="path4272"
           inkscape:connector-curvature="0" />
        <path
           d="m 266.59808,482.12164 -0.0439,2.37305 q -6.81152,3.07617 -13.49121,4.57031 -6.63574,1.53809 -13.13965,1.53809 -3.60351,0 -6.5918,-0.70313 -2.98828,-0.70312 -5.36132,-2.06543 -2.8125,-1.62597 -4.2627,-4.1748 -1.40625,-2.54883 -1.40625,-5.93262 0,-5.97656 5.97656,-10.67871 6.02051,-4.70215 17.92969,-8.12988 -0.9668,-2.8125 -3.2959,-4.2627 -2.28515,-1.45019 -5.84472,-1.45019 -3.82325,0 -6.94336,1.58203 -3.12012,1.53808 -5.53711,4.57031 l -2.3291,-2.24121 q 3.6914,-5.66895 9.14062,-8.52539 5.44922,-2.90039 12.7002,-2.90039 5.88867,0 10.32714,3.2959 4.48243,3.25195 7.5586,9.7998 2.41699,5.1416 3.55957,10.98633 1.18652,5.80078 1.05469,12.34863 z m -6.81153,-15.29297 q 0,-1.58203 -0.79101,-2.37304 -0.74707,-0.79102 -2.3291,-0.79102 -1.58204,0 -2.417,0.79102 -0.79101,0.79101 -0.79101,2.37304 0,1.58204 0.79101,2.37305 0.83496,0.74707 2.417,0.74707 1.58203,0 2.3291,-0.74707 0.79101,-0.79101 0.79101,-2.37305 z m -10.45898,12.04102 q 0,-3.99902 -0.39551,-7.91016 -0.35156,-3.91113 -1.14258,-7.73437 -4.13086,1.18652 -7.4707,2.54883 -3.2959,1.31836 -5.75684,2.8125 l 4.48242,18.14941 q 3.51563,0 6.06446,-0.39551 2.54883,-0.3955 4.08691,-1.27441 0.0879,-1.58203 0.0879,-3.12012 0.0439,-1.53808 0.0439,-3.07617 z m 12.26074,-0.17578 q 0,-1.66992 -1.18652,-2.85645 -1.14258,-1.18652 -2.85645,-1.18652 -1.66992,0 -2.90039,1.14258 -1.18652,1.14258 -1.18652,2.90039 0,1.71387 1.18652,2.85644 1.23047,1.14258 2.90039,1.14258 1.71387,0 2.85645,-1.14258 1.18652,-1.18652 1.18652,-2.85644 z"
           style="font-style:normal;font-variant:normal;font-weight:normal;font-stretch:normal;font-size:90px;font-family:Jokerman;-inkscape-font-specification:Jokerman;fill:#000000;fill-opacity:1;stroke:#000000;stroke-width:5.29506877;stroke-linecap:butt;stroke-linejoin:miter;stroke-miterlimit:4;stroke-dasharray:none;stroke-opacity:1"
           id="path4274"
           inkscape:connector-curvature="0" />
        <path
           d="m 302.63323,418.2691 q 0,1.58204 -0.79101,2.37305 -0.74707,0.74707 -2.32911,0.74707 -1.58203,0 -2.37304,-0.74707 -0.79102,-0.79101 -0.79102,-2.37305 0,-1.62597 0.79102,-2.41699 0.79101,-0.79101 2.37304,-0.79101 1.58204,0 2.32911,0.79101 0.79101,0.79102 0.79101,2.41699 z m 0.79102,10.15137 q 0,1.62598 -0.79102,2.37305 -0.74707,0.74707 -2.3291,0.74707 -1.53809,0 -2.3291,-0.74707 -0.79102,-0.74707 -0.79102,-2.37305 0,-1.49414 0.79102,-2.28516 0.79101,-0.83496 2.3291,-0.83496 1.58203,0 2.3291,0.83496 0.79102,0.79102 0.79102,2.28516 z m 1.23047,10.89844 q 0,1.62598 -0.79102,2.37305 -0.74707,0.74707 -2.3291,0.74707 -1.58203,0 -2.37305,-0.74707 -0.79101,-0.74707 -0.79101,-2.37305 0,-1.58203 0.79101,-2.37305 0.79102,-0.79101 2.37305,-0.79101 1.58203,0 2.3291,0.79101 0.79102,0.79102 0.79102,2.37305 z m 18.85254,-30.71777 -6.28418,80.63964 -7.86622,-0.65918 -0.43945,-11.03027 q -3.03222,4.2627 -7.03125,6.41602 -3.95508,2.15332 -8.87695,2.15332 -7.99805,0 -13.5791,-5.75684 -5.58106,-5.75684 -5.58106,-13.79883 0,-4.35058 1.58203,-7.91015 1.62598,-3.60352 4.83399,-6.41602 3.03222,-2.68066 6.76758,-3.99902 3.73535,-1.36231 8.08593,-1.36231 4.13086,0 7.16309,1.09864 3.07617,1.09863 5.18555,3.25195 l -1.80176,-38.62793 17.8418,-3.99902 z m -15.38086,57.30468 q 0,-7.33886 -3.64746,-10.89843 -3.64747,-3.55958 -10.98633,-3.55958 l -0.83496,0 -1.01075,5.66895 -5.80078,-1.09863 -0.43945,3.25195 5.58105,1.36231 -0.57128,3.95507 -5.625,-1.3623 -0.57129,3.12012 5.49316,1.58203 -0.65918,3.42773 -5.36133,-1.40625 -0.8789,3.64746 5.58105,1.27442 -0.87891,5.58105 q 1.53809,0.65918 3.07618,1.01074 1.53808,0.30762 3.03222,0.30762 3.12012,0 5.71289,-1.18652 2.59278,-1.23047 4.7461,-3.69141 2.02148,-2.3291 3.03222,-5.05371 1.01075,-2.76855 1.01075,-5.93262 z"
           style="font-style:normal;font-variant:normal;font-weight:normal;font-stretch:normal;font-size:90px;font-family:Jokerman;-inkscape-font-specification:Jokerman;fill:#000000;fill-opacity:1;stroke:#000000;stroke-width:5.29506877;stroke-linecap:butt;stroke-linejoin:miter;stroke-miterlimit:4;stroke-dasharray:none;stroke-opacity:1"
           id="path4276"
           inkscape:connector-curvature="0" />
        <path
           d="m 375.84612,472.58551 q 0,22.58789 -6.32812,33.88184 -6.28418,11.33789 -18.89649,11.33789 -5.84472,0 -10.81054,-1.58203 -4.92188,-1.58204 -8.9209,-4.79004 l 2.02148,-3.82325 q 2.94434,2.46094 6.5918,3.64747 3.69141,1.23046 8.08594,1.23046 1.58203,0 3.03222,-0.17578 1.49414,-0.13183 2.90039,-0.52734 -0.70312,0.0879 -1.40625,0.13183 -0.65918,0.0439 -1.3623,0.0439 -3.33984,0 -6.32813,-1.05469 -2.98828,-1.05468 -5.66894,-3.16406 -2.8125,-2.24121 -4.2627,-5.00977 -1.45019,-2.7246 -1.58203,-6.0205 1.80176,2.46093 3.42774,4.21875 1.62597,1.80175 3.12011,2.76855 1.9336,1.27442 4.17481,1.88965 2.28515,0.65918 4.96582,0.65918 7.42676,0 11.42578,-8.26172 4.04297,-8.21777 4.74609,-24.69726 -1.31836,2.24121 -2.68066,3.91113 -1.31836,1.62597 -2.72461,2.72461 l 1.58203,3.91113 -2.68066,2.28516 -1.71387,-4.52637 q -1.3623,0.65918 -2.94434,0.87891 -1.53808,0.21972 -3.29589,0 l -1.27442,4.92187 -4.04297,-0.9668 1.9336,-4.61425 q -1.97754,-0.65918 -3.64746,-1.9336 -1.66993,-1.27441 -2.98829,-3.20801 l -3.77929,2.90039 -2.94434,-3.12011 5.18555,-2.94434 q -0.70313,-1.62597 -1.18652,-3.42773 -0.43946,-1.84571 -0.61524,-3.86719 l -4.26269,1.58203 -1.36231,-3.47168 5.27344,-1.53808 q -0.0439,-0.43946 -0.0879,-0.9668 -0.0439,-0.52735 -0.0439,-1.05469 0,-0.61523 0.0879,-1.80176 0.13184,-1.23047 0.26368,-3.03222 l -5.93262,0 0.43945,-4.17481 5.84473,0.87891 0.43945,-3.55957 7.38281,-0.52735 q -0.92285,3.60352 -1.40625,6.81153 -0.43945,3.16406 -0.43945,5.88867 0,2.94434 0.57129,5.40527 0.57129,2.46094 1.66992,4.39453 1.36231,2.417 3.38379,3.64747 2.02148,1.18652 4.74609,1.18652 5.27344,0 7.86621,-3.42774 2.59278,-3.47168 2.59278,-10.37109 0,-2.37305 -0.35156,-5.00977 -0.35157,-2.68066 -1.09864,-5.625 l 11.86524,-2.68066 q 0.70312,6.54785 1.05468,12.52441 0.39551,5.93262 0.39551,11.29395 z"
           style="font-style:normal;font-variant:normal;font-weight:normal;font-stretch:normal;font-size:90px;font-family:Jokerman;-inkscape-font-specification:Jokerman;fill:#000000;fill-opacity:1;stroke:#000000;stroke-width:5.29506877;stroke-linecap:butt;stroke-linejoin:miter;stroke-miterlimit:4;stroke-dasharray:none;stroke-opacity:1"
           id="path4278"
           inkscape:connector-curvature="0" />
        <path
           d="m 433.32659,431.23297 -5.05371,-0.13183 q 0,2.54882 -0.74707,4.83398 -0.70312,2.24121 -2.24121,4.26269 l 5.1416,3.03223 -2.8125,3.73535 -4.35059,-4.1748 q -1.05468,1.14258 -2.8125,2.24121 -1.71386,1.09863 -4.04296,2.15332 l 3.82324,5.36133 -4.48242,2.59277 -2.85645,-6.50391 q -0.92285,0.35157 -1.80176,0.57129 -0.83496,0.21973 -1.62597,0.30762 l -1.40625,15.95215 -6.54785,1.45019 -3.95508,-18.50097 q 4.26269,-0.30762 7.77832,-1.53809 3.55957,-1.23047 6.41601,-3.20801 3.38379,-2.37304 5.05371,-5.5371 1.71387,-3.16407 1.71387,-7.11915 0,-2.8125 -0.74707,-5.09765 -0.70312,-2.28516 -2.24121,-4.04297 -1.58203,-1.80176 -3.7793,-2.68066 -2.19726,-0.92286 -5.00976,-0.92286 -1.80176,0 -3.38379,0.4834 -1.58203,0.43946 -2.94434,1.27442 -1.58203,0.96679 -2.37304,2.3291 -0.79102,1.3623 -0.79102,3.07617 0,2.50488 1.23047,3.7793 1.23047,1.27441 3.6914,1.27441 1.4502,0 2.72461,-0.65918 1.27442,-0.65918 2.28516,-2.06543 l 2.15332,1.71387 q -0.83496,1.31836 -1.97754,2.41699 -1.09863,1.05469 -2.50488,1.80176 l 2.02148,4.1748 -4.48242,1.58203 -1.27441,-4.39453 q -0.43946,0.17578 -1.01074,0.21973 -0.57129,0.0439 -1.27442,0.0439 -2.41699,0 -4.21875,-0.79102 -1.75781,-0.83496 -2.90039,-2.46094 l -4.70215,2.54883 -1.23047,-4.48242 4.70215,-1.49414 q -0.0879,-0.35156 -0.17578,-0.74707 -0.0439,-0.43946 -0.0439,-0.92285 0,-2.02149 0.8789,-3.95508 0.87891,-1.9336 2.59277,-3.64746 l -3.91113,-3.33985 3.12012,-4.08691 3.86719,4.92187 q 2.10937,-1.23046 4.52636,-2.02148 2.417,-0.79102 5.09766,-1.18652 l -0.35156,-5.05371 4.13086,-0.4834 0,5.40527 q 2.68066,0.13184 5.00976,0.79102 2.3291,0.61523 4.30664,1.80175 l 3.51563,-4.48242 3.12012,2.76856 -3.95508,3.51562 q 2.28515,2.10938 3.73535,4.52637 1.45019,2.37305 2.02148,5.09765 l 5.00977,-1.45019 0.35156,5.1416 z m -20.6543,48.7793 q 0,3.33984 -2.37304,5.80078 -2.3291,2.41699 -5.66895,2.41699 -3.2959,0 -5.66894,-2.41699 -2.3291,-2.46094 -2.3291,-5.80078 0,-3.2959 2.3291,-5.66895 2.37304,-2.37304 5.66894,-2.37304 3.2959,0 5.66895,2.37304 2.37304,2.37305 2.37304,5.66895 z m -5.1416,1.14258 q 0,-1.58204 -1.05468,-2.8125 -1.01075,-1.23047 -2.50489,-1.23047 -1.80176,0 -2.72461,1.01074 -0.8789,1.01074 -0.8789,3.03223 0,1.53808 1.01074,2.76855 1.05469,1.23047 2.59277,1.23047 1.49414,0 2.50489,-1.23047 1.05468,-1.27441 1.05468,-2.76855 z"
           style="font-style:normal;font-variant:normal;font-weight:normal;font-stretch:normal;font-size:90px;font-family:Jokerman;-inkscape-font-specification:Jokerman;fill:#000000;fill-opacity:1;stroke:#000000;stroke-width:5.29506877;stroke-linecap:butt;stroke-linejoin:miter;stroke-miterlimit:4;stroke-dasharray:none;stroke-opacity:1"
           id="path4280"
           inkscape:connector-curvature="0" />
      </g>
      <g
         transform="matrix(0.9442748,0,0,0.9442748,-11.50008,-101.3255)"
         id="g4290"
         style="font-style:normal;font-weight:normal;font-size:90px;line-height:125%;font-family:sans-serif;letter-spacing:0px;word-spacing:0px;display:inline;fill:#eb908a;fill-opacity:1;stroke:none;stroke-width:1px;stroke-linecap:butt;stroke-linejoin:miter;stroke-opacity:1">
        <path
           inkscape:connector-curvature="0"
           id="path4292"
           style="font-style:normal;font-variant:normal;font-weight:normal;font-stretch:normal;font-size:90px;font-family:Jokerman;-inkscape-font-specification:Jokerman;fill:#eb908a;fill-opacity:1"
           d="m 170.09417,478.60602 q -1.93359,4.1748 -4.57031,6.24023 -2.63672,2.02149 -5.93262,2.02149 -3.64746,0 -7.38281,-2.46094 -3.69141,-2.46094 -7.47071,-7.38281 l -14.80957,-19.37989 -5.36132,1.49414 -1.49414,27.7295 -8.17383,1.3623 -2.98828,-78.09082 4.48242,-0.0879 0.21972,5.625 8.26172,0.65918 0.83496,-5.36133 4.43848,0.30762 -0.57129,5.80078 6.1084,1.49414 2.68066,-5.625 3.82325,1.80176 -2.63672,5.27344 q 2.15332,0.83496 3.73535,2.15332 1.62598,1.27441 2.76855,2.90039 l 4.30664,-3.03223 2.90039,3.25195 -5.58105,3.69141 q 0.70313,1.62598 0.92285,3.69141 0.21973,2.06543 -0.0879,4.52636 l 6.32813,2.24121 -1.80176,3.86719 -5.36133,-1.97754 q -0.43945,1.71387 -1.3623,3.47168 -0.92286,1.71387 -2.28516,3.38379 l 4.26269,3.7793 -2.68066,3.51562 -4.79004,-3.60351 -2.24121,1.23047 14.01856,22.32422 q 0.74707,1.14257 1.71386,2.19726 1.01074,1.05469 2.28516,1.97754 1.45019,1.05469 2.76855,1.58203 1.36231,0.52735 2.59278,0.52735 1.75781,0 3.38379,-0.9668 1.62597,-0.9668 3.16406,-2.85645 l 1.58203,0.70313 z M 138.893,446.61383 133.66351,423.19098 q -1.31836,-0.57129 -2.98829,-1.01074 -1.62597,-0.4834 -3.64746,-0.79102 l -2.15332,32.73926 q 4.43848,-1.14258 7.9541,-3.03223 3.51563,-1.88965 6.06446,-4.48242 z" />
        <path
           inkscape:connector-curvature="0"
           id="path4294"
           style="font-style:normal;font-variant:normal;font-weight:normal;font-stretch:normal;font-size:90px;font-family:Jokerman;-inkscape-font-specification:Jokerman;fill:#eb908a;fill-opacity:1"
           d="m 216.58831,483.30817 q -1.09863,1.09863 -1.97754,1.97754 -0.87891,0.83496 -1.53808,1.3623 l 3.29589,4.92188 -3.07617,1.80175 -3.33984,-4.13086 q -1.75781,1.05469 -3.73535,1.75782 -1.97754,0.74707 -4.21875,1.01074 l -0.0879,5.18555 -3.95508,-0.26368 0.35156,-4.79004 q -2.02148,0 -4.30664,-0.43945 -2.28516,-0.39551 -4.79004,-1.23047 l -2.46094,5.27344 -3.95508,-2.15332 2.68067,-4.92188 q -2.15332,-1.18652 -3.95508,-2.7246 -1.75781,-1.58204 -3.12012,-3.55958 l -4.70214,2.98829 -1.97754,-3.12012 5.1416,-2.68067 q -1.01074,-2.10937 -1.58203,-4.30664 -0.57129,-2.24121 -0.74707,-4.57031 l -4.70215,1.18653 -1.36231,-3.86719 6.06446,-1.36231 q 0.21972,-2.46093 0.74707,-4.43847 0.52734,-1.97754 1.3623,-3.51563 l -4.26269,-2.54883 2.02148,-3.33984 4.1748,2.90039 q 1.09864,-1.3623 2.37305,-2.46094 1.31836,-1.09863 2.76856,-1.93359 l -3.60352,-5.22949 3.95508,-1.9336 2.90039,5.58106 q 1.40625,-0.43946 2.54883,-0.70313 1.14258,-0.26367 2.02148,-0.39551 l 1.18653,-5.75683 3.12011,0.9668 -0.79101,4.57031 q 1.75781,0 3.33984,0.43945 1.58203,0.43945 3.03223,1.31836 l 4.35058,-4.30664 2.46094,2.06543 -4.13086,4.48242 q 0.9668,0.92285 1.80176,2.24121 0.83496,1.27442 1.49414,2.85645 l 5.1416,-1.71387 0.87891,3.25195 -4.96582,1.71387 q 0.35156,0.9668 0.57129,2.10938 0.26367,1.14257 0.48339,2.46093 l -20.43457,3.55957 0,0.4834 q 0,3.20801 0.65918,6.06446 0.70313,2.8125 2.10938,5.36132 1.66992,3.03223 3.99902,4.57032 2.3291,1.49414 5.22949,1.49414 2.98829,0 6.28418,-1.58203 3.2959,-1.58204 6.98731,-4.83399 l 2.24121,2.85645 z m -17.97363,-21.57715 q -0.17578,-1.9336 -1.4502,-2.90039 -1.23047,-0.9668 -3.55957,-0.9668 -2.85644,0 -5.31738,1.71387 -2.46094,1.71386 -3.33984,4.39453 l 13.66699,-2.24121 z" />
        <path
           inkscape:connector-curvature="0"
           id="path4296"
           style="font-style:normal;font-variant:normal;font-weight:normal;font-stretch:normal;font-size:90px;font-family:Jokerman;-inkscape-font-specification:Jokerman;fill:#eb908a;fill-opacity:1"
           d="m 266.59808,482.12164 -0.0439,2.37305 q -6.81152,3.07617 -13.49121,4.57031 -6.63574,1.53809 -13.13965,1.53809 -3.60351,0 -6.5918,-0.70313 -2.98828,-0.70312 -5.36132,-2.06543 -2.8125,-1.62597 -4.2627,-4.1748 -1.40625,-2.54883 -1.40625,-5.93262 0,-5.97656 5.97656,-10.67871 6.02051,-4.70215 17.92969,-8.12988 -0.9668,-2.8125 -3.2959,-4.2627 -2.28515,-1.45019 -5.84472,-1.45019 -3.82325,0 -6.94336,1.58203 -3.12012,1.53808 -5.53711,4.57031 l -2.3291,-2.24121 q 3.6914,-5.66895 9.14062,-8.52539 5.44922,-2.90039 12.7002,-2.90039 5.88867,0 10.32714,3.2959 4.48243,3.25195 7.5586,9.7998 2.41699,5.1416 3.55957,10.98633 1.18652,5.80078 1.05469,12.34863 z m -6.81153,-15.29297 q 0,-1.58203 -0.79101,-2.37304 -0.74707,-0.79102 -2.3291,-0.79102 -1.58204,0 -2.417,0.79102 -0.79101,0.79101 -0.79101,2.37304 0,1.58204 0.79101,2.37305 0.83496,0.74707 2.417,0.74707 1.58203,0 2.3291,-0.74707 0.79101,-0.79101 0.79101,-2.37305 z m -10.45898,12.04102 q 0,-3.99902 -0.39551,-7.91016 -0.35156,-3.91113 -1.14258,-7.73437 -4.13086,1.18652 -7.4707,2.54883 -3.2959,1.31836 -5.75684,2.8125 l 4.48242,18.14941 q 3.51563,0 6.06446,-0.39551 2.54883,-0.3955 4.08691,-1.27441 0.0879,-1.58203 0.0879,-3.12012 0.0439,-1.53808 0.0439,-3.07617 z m 12.26074,-0.17578 q 0,-1.66992 -1.18652,-2.85645 -1.14258,-1.18652 -2.85645,-1.18652 -1.66992,0 -2.90039,1.14258 -1.18652,1.14258 -1.18652,2.90039 0,1.71387 1.18652,2.85644 1.23047,1.14258 2.90039,1.14258 1.71387,0 2.85645,-1.14258 1.18652,-1.18652 1.18652,-2.85644 z" />
        <path
           inkscape:connector-curvature="0"
           id="path4298"
           style="font-style:normal;font-variant:normal;font-weight:normal;font-stretch:normal;font-size:90px;font-family:Jokerman;-inkscape-font-specification:Jokerman;fill:#eb908a;fill-opacity:1"
           d="m 302.63323,418.2691 q 0,1.58204 -0.79101,2.37305 -0.74707,0.74707 -2.32911,0.74707 -1.58203,0 -2.37304,-0.74707 -0.79102,-0.79101 -0.79102,-2.37305 0,-1.62597 0.79102,-2.41699 0.79101,-0.79101 2.37304,-0.79101 1.58204,0 2.32911,0.79101 0.79101,0.79102 0.79101,2.41699 z m 0.79102,10.15137 q 0,1.62598 -0.79102,2.37305 -0.74707,0.74707 -2.3291,0.74707 -1.53809,0 -2.3291,-0.74707 -0.79102,-0.74707 -0.79102,-2.37305 0,-1.49414 0.79102,-2.28516 0.79101,-0.83496 2.3291,-0.83496 1.58203,0 2.3291,0.83496 0.79102,0.79102 0.79102,2.28516 z m 1.23047,10.89844 q 0,1.62598 -0.79102,2.37305 -0.74707,0.74707 -2.3291,0.74707 -1.58203,0 -2.37305,-0.74707 -0.79101,-0.74707 -0.79101,-2.37305 0,-1.58203 0.79101,-2.37305 0.79102,-0.79101 2.37305,-0.79101 1.58203,0 2.3291,0.79101 0.79102,0.79102 0.79102,2.37305 z m 18.85254,-30.71777 -6.28418,80.63964 -7.86622,-0.65918 -0.43945,-11.03027 q -3.03222,4.2627 -7.03125,6.41602 -3.95508,2.15332 -8.87695,2.15332 -7.99805,0 -13.5791,-5.75684 -5.58106,-5.75684 -5.58106,-13.79883 0,-4.35058 1.58203,-7.91015 1.62598,-3.60352 4.83399,-6.41602 3.03222,-2.68066 6.76758,-3.99902 3.73535,-1.36231 8.08593,-1.36231 4.13086,0 7.16309,1.09864 3.07617,1.09863 5.18555,3.25195 l -1.80176,-38.62793 17.8418,-3.99902 z m -15.38086,57.30468 q 0,-7.33886 -3.64746,-10.89843 -3.64747,-3.55958 -10.98633,-3.55958 l -0.83496,0 -1.01075,5.66895 -5.80078,-1.09863 -0.43945,3.25195 5.58105,1.36231 -0.57128,3.95507 -5.625,-1.3623 -0.57129,3.12012 5.49316,1.58203 -0.65918,3.42773 -5.36133,-1.40625 -0.8789,3.64746 5.58105,1.27442 -0.87891,5.58105 q 1.53809,0.65918 3.07618,1.01074 1.53808,0.30762 3.03222,0.30762 3.12012,0 5.71289,-1.18652 2.59278,-1.23047 4.7461,-3.69141 2.02148,-2.3291 3.03222,-5.05371 1.01075,-2.76855 1.01075,-5.93262 z" />
        <path
           inkscape:connector-curvature="0"
           id="path4300"
           style="font-style:normal;font-variant:normal;font-weight:normal;font-stretch:normal;font-size:90px;font-family:Jokerman;-inkscape-font-specification:Jokerman;fill:#eb908a;fill-opacity:1"
           d="m 375.84612,472.58551 q 0,22.58789 -6.32812,33.88184 -6.28418,11.33789 -18.89649,11.33789 -5.84472,0 -10.81054,-1.58203 -4.92188,-1.58204 -8.9209,-4.79004 l 2.02148,-3.82325 q 2.94434,2.46094 6.5918,3.64747 3.69141,1.23046 8.08594,1.23046 1.58203,0 3.03222,-0.17578 1.49414,-0.13183 2.90039,-0.52734 -0.70312,0.0879 -1.40625,0.13183 -0.65918,0.0439 -1.3623,0.0439 -3.33984,0 -6.32813,-1.05469 -2.98828,-1.05468 -5.66894,-3.16406 -2.8125,-2.24121 -4.2627,-5.00977 -1.45019,-2.7246 -1.58203,-6.0205 1.80176,2.46093 3.42774,4.21875 1.62597,1.80175 3.12011,2.76855 1.9336,1.27442 4.17481,1.88965 2.28515,0.65918 4.96582,0.65918 7.42676,0 11.42578,-8.26172 4.04297,-8.21777 4.74609,-24.69726 -1.31836,2.24121 -2.68066,3.91113 -1.31836,1.62597 -2.72461,2.72461 l 1.58203,3.91113 -2.68066,2.28516 -1.71387,-4.52637 q -1.3623,0.65918 -2.94434,0.87891 -1.53808,0.21972 -3.29589,0 l -1.27442,4.92187 -4.04297,-0.9668 1.9336,-4.61425 q -1.97754,-0.65918 -3.64746,-1.9336 -1.66993,-1.27441 -2.98829,-3.20801 l -3.77929,2.90039 -2.94434,-3.12011 5.18555,-2.94434 q -0.70313,-1.62597 -1.18652,-3.42773 -0.43946,-1.84571 -0.61524,-3.86719 l -4.26269,1.58203 -1.36231,-3.47168 5.27344,-1.53808 q -0.0439,-0.43946 -0.0879,-0.9668 -0.0439,-0.52735 -0.0439,-1.05469 0,-0.61523 0.0879,-1.80176 0.13184,-1.23047 0.26368,-3.03222 l -5.93262,0 0.43945,-4.17481 5.84473,0.87891 0.43945,-3.55957 7.38281,-0.52735 q -0.92285,3.60352 -1.40625,6.81153 -0.43945,3.16406 -0.43945,5.88867 0,2.94434 0.57129,5.40527 0.57129,2.46094 1.66992,4.39453 1.36231,2.417 3.38379,3.64747 2.02148,1.18652 4.74609,1.18652 5.27344,0 7.86621,-3.42774 2.59278,-3.47168 2.59278,-10.37109 0,-2.37305 -0.35156,-5.00977 -0.35157,-2.68066 -1.09864,-5.625 l 11.86524,-2.68066 q 0.70312,6.54785 1.05468,12.52441 0.39551,5.93262 0.39551,11.29395 z" />
        <path
           inkscape:connector-curvature="0"
           id="path4302"
           style="font-style:normal;font-variant:normal;font-weight:normal;font-stretch:normal;font-size:90px;font-family:Jokerman;-inkscape-font-specification:Jokerman;fill:#eb908a;fill-opacity:1"
           d="m 433.32659,431.23297 -5.05371,-0.13183 q 0,2.54882 -0.74707,4.83398 -0.70312,2.24121 -2.24121,4.26269 l 5.1416,3.03223 -2.8125,3.73535 -4.35059,-4.1748 q -1.05468,1.14258 -2.8125,2.24121 -1.71386,1.09863 -4.04296,2.15332 l 3.82324,5.36133 -4.48242,2.59277 -2.85645,-6.50391 q -0.92285,0.35157 -1.80176,0.57129 -0.83496,0.21973 -1.62597,0.30762 l -1.40625,15.95215 -6.54785,1.45019 -3.95508,-18.50097 q 4.26269,-0.30762 7.77832,-1.53809 3.55957,-1.23047 6.41601,-3.20801 3.38379,-2.37304 5.05371,-5.5371 1.71387,-3.16407 1.71387,-7.11915 0,-2.8125 -0.74707,-5.09765 -0.70312,-2.28516 -2.24121,-4.04297 -1.58203,-1.80176 -3.7793,-2.68066 -2.19726,-0.92286 -5.00976,-0.92286 -1.80176,0 -3.38379,0.4834 -1.58203,0.43946 -2.94434,1.27442 -1.58203,0.96679 -2.37304,2.3291 -0.79102,1.3623 -0.79102,3.07617 0,2.50488 1.23047,3.7793 1.23047,1.27441 3.6914,1.27441 1.4502,0 2.72461,-0.65918 1.27442,-0.65918 2.28516,-2.06543 l 2.15332,1.71387 q -0.83496,1.31836 -1.97754,2.41699 -1.09863,1.05469 -2.50488,1.80176 l 2.02148,4.1748 -4.48242,1.58203 -1.27441,-4.39453 q -0.43946,0.17578 -1.01074,0.21973 -0.57129,0.0439 -1.27442,0.0439 -2.41699,0 -4.21875,-0.79102 -1.75781,-0.83496 -2.90039,-2.46094 l -4.70215,2.54883 -1.23047,-4.48242 4.70215,-1.49414 q -0.0879,-0.35156 -0.17578,-0.74707 -0.0439,-0.43946 -0.0439,-0.92285 0,-2.02149 0.8789,-3.95508 0.87891,-1.9336 2.59277,-3.64746 l -3.91113,-3.33985 3.12012,-4.08691 3.86719,4.92187 q 2.10937,-1.23046 4.52636,-2.02148 2.417,-0.79102 5.09766,-1.18652 l -0.35156,-5.05371 4.13086,-0.4834 0,5.40527 q 2.68066,0.13184 5.00976,0.79102 2.3291,0.61523 4.30664,1.80175 l 3.51563,-4.48242 3.12012,2.76856 -3.95508,3.51562 q 2.28515,2.10938 3.73535,4.52637 1.45019,2.37305 2.02148,5.09765 l 5.00977,-1.45019 0.35156,5.1416 z m -20.6543,48.7793 q 0,3.33984 -2.37304,5.80078 -2.3291,2.41699 -5.66895,2.41699 -3.2959,0 -5.66894,-2.41699 -2.3291,-2.46094 -2.3291,-5.80078 0,-3.2959 2.3291,-5.66895 2.37304,-2.37304 5.66894,-2.37304 3.2959,0 5.66895,2.37304 2.37304,2.37305 2.37304,5.66895 z m -5.1416,1.14258 q 0,-1.58204 -1.05468,-2.8125 -1.01075,-1.23047 -2.50489,-1.23047 -1.80176,0 -2.72461,1.01074 -0.8789,1.01074 -0.8789,3.03223 0,1.53808 1.01074,2.76855 1.05469,1.23047 2.59277,1.23047 1.49414,0 2.50489,-1.23047 1.05468,-1.27441 1.05468,-2.76855 z" />
      </g>
    </g>
    <g
       id="g5358"
       inkscape:export-xdpi="90.019241"
       inkscape:export-ydpi="90.019241">
      <text
         transform="matrix(1.0347658,0,0,1.0347658,5.1084647,-76.515926)"
         xml:space="preserve"
         style="font-style:normal;font-weight:normal;font-size:90px;line-height:125%;font-family:sans-serif;letter-spacing:0px;word-spacing:0px;display:inline;fill:#000000;fill-opacity:1;stroke:#000000;stroke-width:4.83201126;stroke-linecap:butt;stroke-linejoin:miter;stroke-miterlimit:4;stroke-dasharray:none;stroke-opacity:1;filter:url(#filter5197)"
         x="37.14286"
         y="552.3623"
         id="text5155"
         sodipodi:linespacing="125%"><tspan
           sodipodi:role="line"
           id="tspan5157"
           x="37.14286"
           y="552.3623"
           style="font-style:normal;font-variant:normal;font-weight:normal;font-stretch:normal;font-size:70px;font-family:Jokerman;-inkscape-font-specification:Jokerman;fill:#000000;fill-opacity:1;stroke:#000000;stroke-width:4.83201126;stroke-miterlimit:4;stroke-dasharray:none;stroke-opacity:1">Game Over</tspan></text>
      <text
         sodipodi:linespacing="125%"
         id="text5151"
         y="495.04968"
         x="43.542625"
         style="font-style:normal;font-weight:normal;font-size:93.12892151px;line-height:125%;font-family:sans-serif;letter-spacing:0px;word-spacing:0px;fill:#eb908a;fill-opacity:1;stroke:none;stroke-width:1px;stroke-linecap:butt;stroke-linejoin:miter;stroke-opacity:1"
         xml:space="preserve"><tspan
           style="font-style:normal;font-variant:normal;font-weight:normal;font-stretch:normal;font-size:72.43360901px;font-family:Jokerman;-inkscape-font-specification:Jokerman;fill:#eb908a;fill-opacity:1"
           y="495.04968"
           x="43.542625"
           id="tspan5153"
           sodipodi:role="line">Game Over</tspan></text>
    </g>
    <g
       id="g5348"
       inkscape:export-xdpi="90.038368"
       inkscape:export-ydpi="90.038368">
      <text
         transform="matrix(0.94805049,0,0,0.94805049,15.798643,-15.608677)"
         xml:space="preserve"
         style="font-style:normal;font-weight:normal;font-size:82.49031067px;line-height:125%;font-family:sans-serif;letter-spacing:0px;word-spacing:0px;display:inline;fill:#000000;fill-opacity:1;stroke:#000000;stroke-width:5.27398071;stroke-linecap:butt;stroke-linejoin:miter;stroke-miterlimit:4;stroke-dasharray:none;stroke-opacity:1;filter:url(#filter5283)"
         x="23.456083"
         y="648.56305"
         id="text5213"
         sodipodi:linespacing="125%"><tspan
           sodipodi:role="line"
           id="tspan5215"
           x="23.456083"
           y="648.56305"
           style="font-style:normal;font-variant:normal;font-weight:normal;font-stretch:normal;font-size:73.32471466px;font-family:Jokerman;-inkscape-font-specification:Jokerman;fill:#000000;fill-opacity:1;stroke:#000000;stroke-width:5.27398071;stroke-miterlimit:4;stroke-dasharray:none;stroke-opacity:1">Game Clear</tspan></text>
      <text
         sodipodi:linespacing="125%"
         id="text5209"
         y="599.26184"
         x="38.036194"
         style="font-style:normal;font-weight:normal;font-size:78.20497894px;line-height:125%;font-family:sans-serif;letter-spacing:0px;word-spacing:0px;fill:#eb908a;fill-opacity:1;stroke:none;stroke-width:1px;stroke-linecap:butt;stroke-linejoin:miter;stroke-opacity:1"
         xml:space="preserve"><tspan
           style="font-style:normal;font-variant:normal;font-weight:normal;font-stretch:normal;font-size:69.51553345px;font-family:Jokerman;-inkscape-font-specification:Jokerman;fill:#eb908a;fill-opacity:1"
           y="599.26184"
           x="38.036194"
           id="tspan5211"
           sodipodi:role="line">Game Clear</tspan></text>
    </g>
    <g
       id="g5398"
       inkscape:export-xdpi="90.019241"
       inkscape:export-ydpi="90.019241">
      <text
         transform="matrix(0.90423918,0,0,0.90423918,30.123876,73.34529)"
         xml:space="preserve"
         style="font-style:normal;font-variant:normal;font-weight:normal;font-stretch:normal;font-size:90px;line-height:125%;font-family:Jokerman;-inkscape-font-specification:Jokerman;letter-spacing:0px;word-spacing:0px;display:inline;fill:#000000;fill-opacity:1;stroke:#000000;stroke-width:5.52951046;stroke-linecap:butt;stroke-linejoin:miter;stroke-miterlimit:4;stroke-dasharray:none;stroke-opacity:1;filter:url(#filter5332)"
         x="87.88327"
         y="724.06274"
         id="text5310"
         sodipodi:linespacing="125%"><tspan
           sodipodi:role="line"
           id="tspan5312"
           x="87.88327"
           y="724.06274"
           style="font-style:normal;font-variant:normal;font-weight:normal;font-stretch:normal;font-family:Jokerman;-inkscape-font-specification:Jokerman;fill:#000000;fill-opacity:1;stroke:#000000;stroke-width:5.52951046;stroke-miterlimit:4;stroke-dasharray:none;stroke-opacity:1">Pause</tspan></text>
      <text
         sodipodi:linespacing="125%"
         id="text5295"
         y="728.07117"
         x="109.59137"
         style="font-style:normal;font-variant:normal;font-weight:normal;font-stretch:normal;font-size:81.38152313px;line-height:125%;font-family:Jokerman;-inkscape-font-specification:Jokerman;letter-spacing:0px;word-spacing:0px;fill:#eb908a;fill-opacity:1;stroke:none;stroke-width:1px;stroke-linecap:butt;stroke-linejoin:miter;stroke-opacity:1"
         xml:space="preserve"><tspan
           style="font-style:normal;font-variant:normal;font-weight:normal;font-stretch:normal;font-family:Jokerman;-inkscape-font-specification:Jokerman;fill:#eb908a;fill-opacity:1"
           y="728.07117"
           x="109.59137"
           id="tspan5297"
           sodipodi:role="line">Pause</tspan></text>
    </g>
    <text
       xml:space="preserve"
       style="font-style:normal;font-variant:normal;font-weight:normal;font-stretch:condensed;font-size:40.80799103px;line-height:125%;font-family:'Agency FB';-inkscape-font-specification:'Agency FB Condensed';letter-spacing:0px;word-spacing:0px;fill:#ffffff;fill-opacity:1;stroke:#000000;stroke-width:0.81615978px;stroke-linecap:butt;stroke-linejoin:miter;stroke-opacity:1"
       x="-325.81015"
       y="628.19019"
       id="text4172"
       sodipodi:linespacing="125%"
       inkscape:export-xdpi="90.038399"
       inkscape:export-ydpi="90.038399"><tspan
         sodipodi:role="line"
         id="tspan4174"
         x="-325.81015"
         y="628.19019"
         style="font-style:normal;font-variant:normal;font-weight:bold;font-stretch:condensed;font-family:'Agency FB';-inkscape-font-specification:'Agency FB Bold Condensed';letter-spacing:1.39000082px;fill:#ffffff;fill-opacity:1;stroke:#000000;stroke-width:0.81615978px;stroke-opacity:1;font-size:40px"
         dx="0">0123456789:.-</tspan></text>
    <text
       xml:space="preserve"
       style="font-style:normal;font-weight:normal;font-size:51.31867599px;line-height:125%;font-family:sans-serif;letter-spacing:0px;word-spacing:0px;fill:#000000;fill-opacity:1;stroke:none;stroke-width:1px;stroke-linecap:butt;stroke-linejoin:miter;stroke-opacity:1"
       x="-290.9444"
       y="674.81781"
       id="text4176"
       sodipodi:linespacing="125%"
       inkscape:export-filename="C:\Users\0701AND\Pictures\Ascend\input\time.png"
       inkscape:export-xdpi="90.038399"
       inkscape:export-ydpi="90.038399"><tspan
         sodipodi:role="line"
         id="tspan4178"
         x="-290.9444"
         y="674.81781"
         style="font-style:normal;font-variant:normal;font-weight:bold;font-stretch:condensed;font-size:41.8760376px;font-family:'Agency FB';-inkscape-font-specification:'Agency FB Bold Condensed';fill:#ffffff;fill-opacity:1;stroke:#000000;stroke-width:1.02637351px;stroke-opacity:1">Time:</tspan></text>
  </g>
</svg>
